HIERARCHY
ROOT mixamorig:Hips
{
	OFFSET 0.000000 201.639420 0.000000
	CHANNELS 6 Xposition Yposition Zposition Xrotation Yrotation Zrotation
	JOINT mixamorig:Spine
	{
		OFFSET 0.006200 19.524994 -2.481800
		CHANNELS 3 Xrotation Yrotation Zrotation
		JOINT mixamorig:Spine1
		{
			OFFSET -0.000900 22.835007 -2.825400
			CHANNELS 3 Xrotation Yrotation Zrotation
			JOINT mixamorig:Spine2
			{
				OFFSET -0.020600 26.552490 -3.193300
				CHANNELS 3 Xrotation Yrotation Zrotation
				JOINT mixamorig:Neck
				{
					OFFSET -0.060000 30.701813 1.352200
					CHANNELS 3 Xrotation Yrotation Zrotation
					JOINT mixamorig:Head
					{
						OFFSET -0.087200 22.547607 3.670900
						CHANNELS 3 Xrotation Yrotation Zrotation
						JOINT mixamorig:HeadTop_End
						{
							OFFSET -0.830600 40.355194 7.893500
							CHANNELS 3 Xrotation Yrotation Zrotation
							End Site
							{
								OFFSET 0.000000 30.592346 0.000000
							}
						}
						JOINT mixamorig:RightEye
						{
							OFFSET -6.302100 18.118591 16.197100
							CHANNELS 3 Xrotation Yrotation Zrotation
							End Site
							{
								OFFSET 0.000000 30.592346 0.000000
							}
						}
						JOINT mixamorig:LeftEye
						{
							OFFSET 6.741500 18.382690 16.401899
							CHANNELS 3 Xrotation Yrotation Zrotation
							End Site
							{
								OFFSET 0.000000 30.592346 0.000000
							}
						}
					}
				}
				JOINT mixamorig:LeftShoulder
				{
					OFFSET 11.924900 18.230499 1.425400
					CHANNELS 3 Xrotation Yrotation Zrotation
					JOINT mixamorig:LeftArm
					{
						OFFSET 25.435989 -0.697632 -5.229300
						CHANNELS 3 Xrotation Yrotation Zrotation
						JOINT mixamorig:LeftForeArm
						{
							OFFSET 54.684776 0.000000 0.000000
							CHANNELS 3 Xrotation Yrotation Zrotation
							JOINT mixamorig:LeftHand
							{
								OFFSET 55.098175 0.000000 0.000000
								CHANNELS 3 Xrotation Yrotation Zrotation
								JOINT mixamorig:LeftHandMiddle1
								{
									OFFSET 23.369751 0.000000 0.000000
									CHANNELS 3 Xrotation Yrotation Zrotation
									JOINT mixamorig:LeftHandMiddle2
									{
										OFFSET 6.378677 0.000000 0.000000
										CHANNELS 3 Xrotation Yrotation Zrotation
										JOINT mixamorig:LeftHandMiddle3
										{
											OFFSET 6.148331 0.000000 0.000000
											CHANNELS 3 Xrotation Yrotation Zrotation
											JOINT mixamorig:LeftHandMiddle4
											{
												OFFSET 6.582504 0.000000 0.000000
												CHANNELS 3 Xrotation Yrotation Zrotation
												End Site
												{
													OFFSET -1.168900 6.395691 1.028606
												}
											}
										}
									}
								}
								JOINT mixamorig:LeftHandThumb1
								{
									OFFSET 7.235672 -3.848206 5.434273
									CHANNELS 3 Xrotation Yrotation Zrotation
									JOINT mixamorig:LeftHandThumb2
									{
										OFFSET 6.568451 -3.792297 3.792300
										CHANNELS 3 Xrotation Yrotation Zrotation
										JOINT mixamorig:LeftHandThumb3
										{
											OFFSET 6.063080 -3.500519 3.500518
											CHANNELS 3 Xrotation Yrotation Zrotation
											JOINT mixamorig:LeftHandThumb4
											{
												OFFSET 4.793182 -2.767334 2.767349
												CHANNELS 3 Xrotation Yrotation Zrotation
												End Site
												{
													OFFSET 0.101639 6.054260 1.275483
												}
											}
										}
									}
								}
								JOINT mixamorig:LeftHandIndex1
								{
									OFFSET 23.101074 -0.309540 4.992809
									CHANNELS 3 Xrotation Yrotation Zrotation
									JOINT mixamorig:LeftHandIndex2
									{
										OFFSET 6.226883 0.000000 0.000000
										CHANNELS 3 Xrotation Yrotation Zrotation
										JOINT mixamorig:LeftHandIndex3
										{
											OFFSET 6.094330 0.000000 0.000000
											CHANNELS 3 Xrotation Yrotation Zrotation
											JOINT mixamorig:LeftHandIndex4
											{
												OFFSET 5.482605 0.000000 0.000000
												CHANNELS 3 Xrotation Yrotation Zrotation
												End Site
												{
													OFFSET -1.427902 5.233032 0.797164
												}
											}
										}
									}
								}
								JOINT mixamorig:LeftHandRing1
								{
									OFFSET 22.299240 0.021149 -3.964172
									CHANNELS 3 Xrotation Yrotation Zrotation
									JOINT mixamorig:LeftHandRing2
									{
										OFFSET 6.321869 0.000000 0.000000
										CHANNELS 3 Xrotation Yrotation Zrotation
										JOINT mixamorig:LeftHandRing3
										{
											OFFSET 5.899796 0.000000 0.000000
											CHANNELS 3 Xrotation Yrotation Zrotation
											JOINT mixamorig:LeftHandRing4
											{
												OFFSET 6.517899 0.000000 0.000000
												CHANNELS 3 Xrotation Yrotation Zrotation
												End Site
												{
													OFFSET -1.637299 6.232208 0.980890
												}
											}
										}
									}
								}
								JOINT mixamorig:LeftHandPinky1
								{
									OFFSET 20.463791 -0.302338 -8.562233
									CHANNELS 3 Xrotation Yrotation Zrotation
									JOINT mixamorig:LeftHandPinky2
									{
										OFFSET 6.908646 0.000000 0.000000
										CHANNELS 3 Xrotation Yrotation Zrotation
										JOINT mixamorig:LeftHandPinky3
										{
											OFFSET 4.622849 0.000000 0.000000
											CHANNELS 3 Xrotation Yrotation Zrotation
											JOINT mixamorig:LeftHandPinky4
											{
												OFFSET 5.216080 0.000000 0.000000
												CHANNELS 3 Xrotation Yrotation Zrotation
												End Site
												{
													OFFSET -0.606308 5.116241 0.814926
												}
											}
										}
									}
								}
							}
						}
					}
				}
				JOINT mixamorig:RightShoulder
				{
					OFFSET -12.001300 18.284088 1.348900
					CHANNELS 3 Xrotation Yrotation Zrotation
					JOINT mixamorig:RightArm
					{
						OFFSET -25.308500 -0.751312 -5.164599
						CHANNELS 3 Xrotation Yrotation Zrotation
						JOINT mixamorig:RightForeArm
						{
							OFFSET -54.684429 0.000000 0.000000
							CHANNELS 3 Xrotation Yrotation Zrotation
							JOINT mixamorig:RightHand
							{
								OFFSET -55.150291 0.000000 0.000000
								CHANNELS 3 Xrotation Yrotation Zrotation
								JOINT mixamorig:RightHandMiddle1
								{
									OFFSET -23.317566 0.000000 0.000000
									CHANNELS 3 Xrotation Yrotation Zrotation
									JOINT mixamorig:RightHandMiddle2
									{
										OFFSET -6.378403 0.000000 0.000000
										CHANNELS 3 Xrotation Yrotation Zrotation
										JOINT mixamorig:RightHandMiddle3
										{
											OFFSET -6.148193 0.000000 0.000000
											CHANNELS 3 Xrotation Yrotation Zrotation
											JOINT mixamorig:RightHandMiddle4
											{
												OFFSET -6.583389 0.000000 0.000000
												CHANNELS 3 Xrotation Yrotation Zrotation
												End Site
												{
													OFFSET 1.171692 6.395905 1.029786
												}
											}
										}
									}
								}
								JOINT mixamorig:RightHandThumb1
								{
									OFFSET -7.190521 -3.860474 5.435846
									CHANNELS 3 Xrotation Yrotation Zrotation
									JOINT mixamorig:RightHandThumb2
									{
										OFFSET -6.567429 -3.791718 3.791708
										CHANNELS 3 Xrotation Yrotation Zrotation
										JOINT mixamorig:RightHandThumb3
										{
											OFFSET -6.062469 -3.500153 3.500166
											CHANNELS 3 Xrotation Yrotation Zrotation
											JOINT mixamorig:RightHandThumb4
											{
												OFFSET -4.792618 -2.767029 2.767022
												CHANNELS 3 Xrotation Yrotation Zrotation
												End Site
												{
													OFFSET -0.100327 6.053253 1.276754
												}
											}
										}
									}
								}
								JOINT mixamorig:RightHandIndex1
								{
									OFFSET -23.048981 -0.310791 4.992554
									CHANNELS 3 Xrotation Yrotation Zrotation
									JOINT mixamorig:RightHandIndex2
									{
										OFFSET -6.227539 0.000000 0.000000
										CHANNELS 3 Xrotation Yrotation Zrotation
										JOINT mixamorig:RightHandIndex3
										{
											OFFSET -6.095047 0.000000 0.000000
											CHANNELS 3 Xrotation Yrotation Zrotation
											JOINT mixamorig:RightHandIndex4
											{
												OFFSET -5.484772 0.000000 0.000000
												CHANNELS 3 Xrotation Yrotation Zrotation
												End Site
												{
													OFFSET 1.420593 5.237305 0.797056
												}
											}
										}
									}
								}
								JOINT mixamorig:RightHandRing1
								{
									OFFSET -22.246323 0.020569 -3.963762
									CHANNELS 3 Xrotation Yrotation Zrotation
									JOINT mixamorig:RightHandRing2
									{
										OFFSET -6.322128 0.000000 0.000000
										CHANNELS 3 Xrotation Yrotation Zrotation
										JOINT mixamorig:RightHandRing3
										{
											OFFSET -5.900024 0.000000 0.000000
											CHANNELS 3 Xrotation Yrotation Zrotation
											JOINT mixamorig:RightHandRing4
											{
												OFFSET -6.518356 0.000000 0.000000
												CHANNELS 3 Xrotation Yrotation Zrotation
												End Site
												{
													OFFSET 1.636398 6.232697 0.982186
												}
											}
										}
									}
								}
								JOINT mixamorig:RightHandPinky1
								{
									OFFSET -20.411011 -0.303314 -8.561701
									CHANNELS 3 Xrotation Yrotation Zrotation
									JOINT mixamorig:RightHandPinky2
									{
										OFFSET -6.907349 0.000000 0.000000
										CHANNELS 3 Xrotation Yrotation Zrotation
										JOINT mixamorig:RightHandPinky3
										{
											OFFSET -4.623840 0.000000 0.000000
											CHANNELS 3 Xrotation Yrotation Zrotation
											JOINT mixamorig:RightHandPinky4
											{
												OFFSET -5.218353 0.000000 0.000000
												CHANNELS 3 Xrotation Yrotation Zrotation
												End Site
												{
													OFFSET 0.602097 5.118835 0.816273
												}
											}
										}
									}
								}
							}
						}
					}
				}
			}
		}
	}
	JOINT mixamorig:LeftUpLeg
	{
		OFFSET 18.168400 -13.561905 -0.039000
		CHANNELS 3 Xrotation Yrotation Zrotation
		JOINT mixamorig:LeftLeg
		{
			OFFSET 0.577358 -80.825211 -3.695000
			CHANNELS 3 Xrotation Yrotation Zrotation
			JOINT mixamorig:LeftFoot
			{
				OFFSET -0.577356 -83.370262 -6.520700
				CHANNELS 3 Xrotation Yrotation Zrotation
				JOINT mixamorig:LeftToeBase
				{
					OFFSET 0.750401 -20.798306 25.135401
					CHANNELS 3 Xrotation Yrotation Zrotation
					JOINT mixamorig:LeftToe_End
					{
						OFFSET -0.000500 0.001200 19.917799
						CHANNELS 3 Xrotation Yrotation Zrotation
						End Site
						{
							OFFSET 0.000000 19.917805 0.000000
						}
					}
				}
			}
		}
	}
	JOINT mixamorig:RightUpLeg
	{
		OFFSET -18.162500 -13.585098 -0.041000
		CHANNELS 3 Xrotation Yrotation Zrotation
		JOINT mixamorig:RightLeg
		{
			OFFSET -0.595024 -80.945297 -3.631900
			CHANNELS 3 Xrotation Yrotation Zrotation
			JOINT mixamorig:RightFoot
			{
				OFFSET 0.595024 -83.218193 -6.561200
				CHANNELS 3 Xrotation Yrotation Zrotation
				JOINT mixamorig:RightToeBase
				{
					OFFSET -0.753601 -20.807106 25.115000
					CHANNELS 3 Xrotation Yrotation Zrotation
					JOINT mixamorig:RightToe_End
					{
						OFFSET 0.000299 0.001700 19.918200
						CHANNELS 3 Xrotation Yrotation Zrotation
						End Site
						{
							OFFSET 0.000000 19.918203 0.000000
						}
					}
				}
			}
		}
	}
}
MOTION
Frames: 4
Frame Time: 0.033333
7.340672 18.832031 22.057083 87.459985 0.097083 0.981886 3.812703 0.583027 -1.046186 0.793265 0.138199 -0.141419 0.792535 0.141294 -0.141442 -5.136624 -13.863057 6.464560 -18.401132 -57.030990 -18.459175 0.000000 0.000002 0.000000 0.000000 0.000002 0.000000 0.000000 0.000002 0.000000 3.766325 -21.296511 -1.257000 15.600389 -18.626739 -61.954460 -0.000008 -18.654959 0.000005 42.089050 7.016531 -15.751002 0.298074 2.007748 -16.887098 0.540426 2.678551 -22.809579 0.036388 0.708403 -5.880820 0.000002 -0.000004 0.000004 -1.540046 3.690177 6.142352 3.939046 7.948719 0.746808 -0.579466 1.574996 2.538716 0.000000 0.000006 0.000000 0.298628 2.009589 -16.903103 0.539679 2.676766 -22.793547 0.036382 0.708439 -5.880813 -0.000002 -0.000001 0.000001 0.298625 2.009585 -16.903101 0.539687 2.676815 -22.793545 0.036387 0.708411 -5.880811 0.000000 0.000002 -0.000002 1.465422 5.893240 -16.473130 0.545004 -1.382196 -23.265298 0.036398 0.708408 -5.880812 0.000001 -0.000001 -0.000000 0.640298 15.700658 9.197084 13.898631 -3.320478 53.523473 -0.000018 31.875308 0.000007 15.264802 -23.834174 10.590716 0.480697 -2.544871 21.389426 1.003304 -3.603117 31.111303 0.099718 -1.175694 9.694889 -0.000001 0.000002 -0.000001 -1.849233 -3.581797 -6.586125 4.637204 -8.634124 -0.225411 -1.273758 0.137301 -2.094881 0.000001 -0.000004 -0.000000 0.480699 -2.544869 21.389427 1.003314 -3.603086 31.111314 0.099697 -1.175705 9.694893 0.000002 -0.000001 0.000000 0.480698 -2.544870 21.389434 1.003310 -3.603127 31.111297 0.099714 -1.175682 9.694903 0.000000 -0.000002 0.000004 0.480695 -2.544865 21.389429 1.003306 -3.603112 31.111314 0.099712 -1.175698 9.694888 0.000000 -0.000003 0.000002 -12.034925 6.677709 8.540408 15.757156 10.906934 1.568830 45.306356 28.370953 -17.189308 4.751863 0.610617 7.785493 -0.000000 0.000000 0.000001 -13.663592 -7.634391 -10.931531 19.638561 -9.691325 -0.056256 43.450371 -28.238406 26.904040 12.523297 -1.978168 -13.313973 0.000001 0.000000 0.000000 
7.338893 18.840805 22.058411 87.458154 0.105297 0.986626 3.811789 0.576405 -1.046563 0.792723 0.136770 -0.140974 0.792065 0.139862 -0.141001 -5.125228 -13.862462 6.457399 -18.396659 -57.041649 -18.453996 0.000000 0.000001 -0.000000 0.000000 0.000001 -0.000000 0.000000 0.000001 -0.000000 3.780958 -21.376515 -1.256562 15.557019 -18.577039 -61.979650 -0.000010 -18.573453 -0.000008 42.065291 6.975512 -15.756061 0.298066 2.007722 -16.887100 0.540428 2.678591 -22.809572 0.036384 0.708423 -5.880828 0.000002 0.000001 -0.000004 -1.540041 3.690200 6.142355 3.939040 7.948705 0.746811 -0.579467 1.574988 2.538715 0.000001 -0.000003 -0.000001 0.298628 2.009580 -16.903105 0.539678 2.676779 -22.793552 0.036381 0.708433 -5.880806 -0.000000 0.000000 -0.000001 0.298628 2.009580 -16.903105 0.539673 2.676793 -22.793554 0.036381 0.708437 -5.880805 -0.000001 0.000001 -0.000001 1.465429 5.893266 -16.473137 0.545003 -1.382186 -23.265310 0.036382 0.708437 -5.880826 -0.000001 0.000001 0.000002 0.640454 15.698681 9.195461 13.865638 -3.328984 53.534917 -0.000011 31.844077 0.000012 15.261166 -23.895847 10.436846 0.480697 -2.544889 21.389414 1.003306 -3.603110 31.111310 0.099693 -1.175710 9.694905 0.000001 0.000001 -0.000001 -1.849235 -3.581797 -6.586138 4.637206 -8.634123 -0.225392 -1.273762 0.137314 -2.094879 -0.000004 -0.000004 -0.000000 0.480694 -2.544889 21.389414 1.003310 -3.603100 31.111310 0.099692 -1.175709 9.694899 0.000003 0.000002 -0.000002 0.480693 -2.544899 21.389403 1.003312 -3.603123 31.111303 0.099702 -1.175704 9.694917 0.000001 0.000004 -0.000001 0.480697 -2.544888 21.389407 1.003318 -3.603113 31.111307 0.099698 -1.175706 9.694908 -0.000004 0.000001 -0.000000 -12.041116 6.677507 8.534778 15.765834 10.906605 1.577677 45.291316 28.393909 -17.254866 4.806788 0.619771 7.840857 0.000002 -0.000001 -0.000001 -13.668484 -7.638293 -10.940804 19.646390 -9.691151 -0.049658 43.456238 -28.237356 26.903396 12.526091 -1.974523 -13.301632 0.000003 -0.000002 0.000001 
7.338082 18.853699 22.056747 87.471794 0.107801 0.991321 3.797520 0.573192 -1.041830 0.789361 0.135992 -0.140076 0.788658 0.139074 -0.140107 -5.121927 -13.861137 6.450708 -18.398284 -57.039794 -18.467935 0.000000 0.000001 -0.000000 0.000000 0.000001 -0.000000 0.000000 0.000001 -0.000000 3.778173 -21.356560 -1.261977 15.443073 -18.624015 -61.994745 -0.000000 -18.349915 0.000015 42.050446 6.853583 -15.823766 0.298068 2.007733 -16.887100 0.540439 2.678591 -22.809564 0.036393 0.708397 -5.880823 0.000002 -0.000001 -0.000001 -1.540040 3.690178 6.142352 3.939045 7.948721 0.746809 -0.579468 1.575020 2.538717 0.000002 -0.000002 0.000000 0.298627 2.009570 -16.903106 0.539677 2.676814 -22.793557 0.036393 0.708405 -5.880806 -0.000001 0.000000 -0.000005 0.298627 2.009589 -16.903101 0.539676 2.676804 -22.793566 0.036390 0.708421 -5.880807 0.000002 -0.000001 0.000002 1.465418 5.893246 -16.473141 0.545010 -1.382177 -23.265305 0.036390 0.708426 -5.880803 0.000000 0.000002 0.000006 0.641327 15.722568 9.188457 13.818681 -3.397884 53.553126 -0.000009 31.811575 -0.000005 15.307895 -23.941270 10.358006 0.480696 -2.544877 21.389400 1.003310 -3.603126 31.111310 0.099724 -1.175703 9.694888 0.000002 -0.000000 -0.000006 -1.849241 -3.581795 -6.586135 4.637193 -8.634128 -0.225405 -1.273764 0.137307 -2.094871 -0.000001 -0.000002 -0.000000 0.480698 -2.544871 21.389408 1.003309 -3.603099 31.111307 0.099716 -1.175710 9.694883 0.000001 -0.000002 0.000000 0.480694 -2.544877 21.389405 1.003314 -3.603117 31.111303 0.099709 -1.175707 9.694881 -0.000003 0.000002 -0.000004 0.480701 -2.544871 21.389408 1.003312 -3.603116 31.111314 0.099717 -1.175715 9.694877 0.000003 -0.000000 -0.000000 -12.048464 6.665097 8.516157 15.743229 10.906922 1.597693 45.313090 28.402100 -17.262996 4.802705 0.617926 7.829514 0.000001 -0.000001 0.000000 -13.699450 -7.636180 -10.949415 19.681262 -9.685966 -0.055180 43.411139 -28.233000 27.008322 12.700679 -2.003107 -13.383073 -0.000003 0.000000 -0.000004 
7.339320 18.867752 22.047928 87.435533 0.107663 0.985313 3.827493 0.576109 -1.028803 0.796294 0.136671 -0.137256 0.795603 0.139797 -0.137287 -5.115595 -13.859029 6.442830 -18.375033 -57.041471 -18.453988 -0.000000 0.000001 -0.000000 -0.000000 0.000001 -0.000000 -0.000000 0.000001 -0.000000 3.802143 -21.483399 -1.265532 15.394218 -18.474919 -62.000182 0.000018 -18.315644 0.000009 41.967261 6.718668 -15.845045 0.298068 2.007729 -16.887112 0.540419 2.678565 -22.809572 0.036396 0.708404 -5.880816 -0.000000 0.000000 -0.000003 -1.540045 3.690162 6.142352 3.939047 7.948727 0.746809 -0.579468 1.574989 2.538716 0.000000 -0.000002 -0.000001 0.298627 2.009579 -16.903101 0.539670 2.676796 -22.793548 0.036396 0.708396 -5.880813 0.000001 0.000001 -0.000003 0.298625 2.009579 -16.903101 0.539670 2.676802 -22.793552 0.036396 0.708406 -5.880813 0.000000 -0.000001 0.000003 1.465423 5.893238 -16.473134 0.545001 -1.382184 -23.265303 0.036388 0.708431 -5.880808 0.000000 0.000001 0.000000 0.639807 15.714138 9.202135 13.756199 -3.457305 53.523698 -0.000020 31.811579 0.000008 15.336389 -24.010444 10.383674 0.480710 -2.544864 21.389432 1.003326 -3.603117 31.111290 0.099707 -1.175688 9.694909 0.000004 -0.000002 -0.000002 -1.849234 -3.581784 -6.586124 4.637184 -8.634138 -0.225413 -1.273758 0.137314 -2.094879 -0.000003 -0.000005 -0.000000 0.480704 -2.544874 21.389429 1.003326 -3.603093 31.111303 0.099705 -1.175691 9.694905 0.000001 0.000002 -0.000003 0.480703 -2.544879 21.389429 1.003319 -3.603111 31.111279 0.099714 -1.175682 9.694916 0.000002 -0.000000 0.000003 0.480701 -2.544870 21.389441 1.003325 -3.603105 31.111286 0.099702 -1.175697 9.694899 0.000000 -0.000004 -0.000002 -12.021110 6.680325 8.531016 15.749561 10.907016 1.590939 45.313790 28.402373 -17.233838 4.773819 0.611120 7.787578 0.000001 0.000000 -0.000001 -13.670630 -7.638552 -10.941057 19.697135 -9.685174 -0.057265 43.390556 -28.232375 27.009310 12.735946 -2.003277 -13.380923 0.000001 -0.000001 0.000002 
